# xmcd
#
# Track frame offsets:
#	150
#	19380
#	34580
#	52950
#	68002
#	85897
#	103617
#	117790
#	133967
#	148345
#	166742
#	185972
#	201172
#	219540
#	234592
#	252487
#	270205
#	284375
#	300555
#	314930
#
# Disc length: 4444 seconds
#
# Revision: 1
# Processed by: cddbd v1.5.2PL0 Copyright (c) Steve Scherf et al.
# Submitted via: audiograbber 1.83.01
#
DISCID=31115a14
DTITLE=Various Artist - THMC0302
DYEAR=1900
DGENRE=Karaoke
TTITLE0=Twain, Shania - I'm Gonna Getcha Good (Vocals)
TTITLE1=Worley, Darryl - Family Tree (Vocals)
TTITLE2=Shelton, Blake - The Baby (Vocals)
TTITLE3=Carter, Deanna - There's No Limit (Vocals)
TTITLE4=Nichols, Joe - Brokenheartsville (Vocals)
TTITLE5=Womack, Lee Ann - Forever Everyday (Vocals)
TTITLE6=Denny, Kevin - It'll Go Away (Vocals)
TTITLE7=Diamond Rio - I Believe (Vocals)
TTITLE8=Parton, Dolly - Hello God (Vocals)
TTITLE9=Greenwood, Lee - Rocks That You Can't Move (Vocals)
TTITLE10=Twain, Shania - I'm Gonna Getcha Good
TTITLE11=Worley, Darryl - Family Tree
TTITLE12=Shelton, Blake - The Baby
TTITLE13=Carter, Deanna - There's No Limit
TTITLE14=Nichols, Joe - Brokenheartsville
TTITLE15=Womack, Lee Ann - Forever Everyday
TTITLE16=Denney, Kevin - It'll Go Away
TTITLE17=Diamond Rio - I Believe
TTITLE18=Parton, Dolly - Hello God
TTITLE19=Greenwood, Lee - Rocks That You Can't Move
EXTD=
EXTT0=
EXTT1=
EXTT2=
EXTT3=
EXTT4=
EXTT5=
EXTT6=
EXTT7=
EXTT8=
EXTT9=
EXTT10=
EXTT11=
EXTT12=
EXTT13=
EXTT14=
EXTT15=
EXTT16=
EXTT17=
EXTT18=
EXTT19=
PLAYORDER=
